<svg width="380" height="140" viewBox="0 0 380 140" fill="none" xmlns="http://www.w3.org/2000/svg">
<rect width="380" height="140" fill="#CC0001"/>
<path d="M50 55H70V85H80V55H90V95H50V55ZM100 45H120V65H130V55H140V95H130V75H120V95H100V45ZM170 45H190V95H150V55H170V45ZM160 65V85H170V65H160ZM200 45H220V55H200V45ZM200 65H220V95H200V65ZM229.98 55H269.98V75H259.98V65H249.98V85H269.98V95H229.98V55ZM279.98 55H319.98V75H309.98V85H319.98V95H279.98V55ZM289.98 65V85H299.98V65H289.98Z" fill="white"/>
</svg>
