<svg width="1500" height="1500" viewBox="0 0 1500 1500" fill="none" xmlns="http://www.w3.org/2000/svg">
<rect width="1500" height="1500" fill="#CC0001"/>
<path d="M204 688H282V805H321V688H360V844H204V688ZM399 649H477V727H516V688H555V844H516V766H477V844H399V649ZM672 649H750V844H594V688H672V649ZM633 727V805H672V727H633ZM789 649H867V688H789V649ZM789 727H867V844H789V727ZM905.924 688H1061.92V766H1022.92V727H983.924V805H1061.92V844H905.924V688ZM1100.92 688H1256.92V766H1217.92V805H1256.92V844H1100.92V688ZM1139.92 727V805H1178.92V727H1139.92Z" fill="white"/>
</svg>
